# xmcd
#
# Track frame offsets: 
#        182
#        13245
#        29810
#        48365
#        61917
#        76272
#        95862
#        112202
#        132090
#        136812
#        158530
#        173860
#        188247
#        216887
#
# Disc length: 2968 seconds
#
# Revision: 1
# Processed by: cddbd v1.4PL0 Copyright (c) Steve Scherf et al.
# Submitted via: ExactAudioCopy v0.95a3
#
DISCID=c50b960e
DTITLE=Louis Amstrong - 28 Great Jazz Performances CD1
DYEAR=1990
DGENRE=Jazz
TTITLE0=C'est Si Bon
TTITLE1=Muskrat Ramble
TTITLE2=Someday You'll Be Sorry
TTITLE3=Snake Rag
TTITLE4=That Rhythm Man
TTITLE5=Indiana
TTITLE6=(What Did I Do To Be So) Black And Blue
TTITLE7=I Can't Give You Anything But Love
TTITLE8=When You're Smiling
TTITLE9=Rockin' Chair
TTITLE10=Bye and Bye
TTITLE11=I Can't Believe That You're in Love With Me
TTITLE12=How High The Moon
TTITLE13=When It's Sleepy Time Down South
EXTD=
EXTT0=
EXTT1=
EXTT2=
EXTT3=
EXTT4=
EXTT5=
EXTT6=
EXTT7=
EXTT8=
EXTT9=
EXTT10=
EXTT11=
EXTT12=
EXTT13=
PLAYORDER=
